<?xml version="1.0" encoding="UTF-8" standalone="no"?>
<!-- Created with Inkscape (http://www.inkscape.org/) -->

<svg
   xmlns:dc="http://purl.org/dc/elements/1.1/"
   xmlns:cc="http://creativecommons.org/ns#"
   xmlns:rdf="http://www.w3.org/1999/02/22-rdf-syntax-ns#"
   xmlns:svg="http://www.w3.org/2000/svg"
   xmlns="http://www.w3.org/2000/svg"
   xmlns:sodipodi="http://sodipodi.sourceforge.net/DTD/sodipodi-0.dtd"
   xmlns:inkscape="http://www.inkscape.org/namespaces/inkscape"
   width="744.09448819"
   height="1052.3622047"
   id="svg2"
   version="1.1"
   inkscape:version="0.48.4 r9939"
   sodipodi:docname="New document 1">
  <defs
     id="defs4" />
  <sodipodi:namedview
     id="base"
     pagecolor="#ffffff"
     bordercolor="#666666"
     borderopacity="1.0"
     inkscape:pageopacity="0.0"
     inkscape:pageshadow="2"
     inkscape:zoom="0.98994949"
     inkscape:cx="321.12662"
     inkscape:cy="498.67179"
     inkscape:document-units="px"
     inkscape:current-layer="layer1"
     showgrid="false"
     inkscape:window-width="1366"
     inkscape:window-height="715"
     inkscape:window-x="-8"
     inkscape:window-y="-8"
     inkscape:window-maximized="1" />
  <metadata
     id="metadata7">
    <rdf:RDF>
      <cc:Work
         rdf:about="">
        <dc:format>image/svg+xml</dc:format>
        <dc:type
           rdf:resource="http://purl.org/dc/dcmitype/StillImage" />
        <dc:title></dc:title>
      </cc:Work>
    </rdf:RDF>
  </metadata>
  <g
     inkscape:label="Layer 1"
     inkscape:groupmode="layer"
     id="layer1">
    <path
       style="fill:#006100;fill-opacity:1;stroke:#000000;stroke-opacity:1;opacity:1"
       d="m 183.52987,328.88393 c -61.27778,9.02167 -140.453829,34.96873 -140.453829,46.02864 0,3.23344 0.55706,5.87901 1.23785,5.87901 0.68086,0 16.81108,-2.23208 35.84494,-4.96019 45.964239,-6.58801 103.103029,-6.69327 111.061369,-0.20475 7.0897,5.78049 6.30751,6.7453 -29.95605,36.94723 -50.20614,41.81398 -70.597399,78.53394 -70.597399,127.12965 0,53.03576 29.085599,99.75349 86.007509,138.14655 97.69809,65.89605 253.94638,95.17224 384.97478,72.13259 63.48839,-11.16349 134.05192,-35.14147 134.05192,-45.55165 0,-4.43794 -2.81685,-5.51081 -11.12427,-4.23697 -61.79073,9.47505 -127.85655,10.95686 -139.42739,3.12733 -7.2082,-4.87756 -6.58919,-6.37131 7.2787,-17.56398 60.94276,-49.18652 71.85324,-61.73018 86.18248,-99.083 9.7869,-25.51208 9.7953,-68.42654 0.0194,-93.82598 -14.34246,-37.26022 -35.75874,-61.29784 -83.69708,-93.94151 -37.73051,-25.69271 -51.90166,-32.81407 -91.60479,-46.034 -66.97167,-22.29948 -110.85436,-29.01633 -187.43168,-28.68914 -34.23573,0.14624 -75.80013,2.26137 -92.36539,4.70017 z m 204.03478,142.7331 c 21.50934,3.66186 26.90898,10.66515 52.74205,19.26675 39.70313,13.2199 17.10344,36.08183 29.98551,79.87407 3.8956,13.24301 1.55606,-19.20319 -2.57047,-19.09913 -6.2425,0.1574 -0.70345,20.37304 -11.34318,22.13834 -17.35782,2.87993 -22.81544,12.09883 -16.64914,19.41734 0.66639,0.79091 -15.28595,0.84425 -14.64272,1.58911 55.98885,64.83409 41.01021,-42.09133 -54.07617,23.38495 -34.99399,24.09678 99.90491,123.87652 114.53168,133.7739 7.34652,4.97117 57.47363,-12.70262 108.16197,-14.28291 32.06307,-0.99957 67.38788,-24.6059 67.38788,-24.06199 0,0.54395 -10.56805,4.36768 -23.4846,8.49715 -72.82438,23.28232 -205.02303,-108.22192 -271.04944,-114.33916 -40.01567,-3.70739 -56.48757,-21.64247 -73.61115,-17.74557 -3.72282,0.84722 -17.64427,-34.49474 -20.58737,-33.33853 -44.61364,17.52673 6.7992,101.90855 6.7992,28.46917 0,-42.65525 -42.28961,-47.27533 8.66703,-89.22688 6.8501,-5.63955 86.92343,-41.35709 74.8183,-57.74366 -24.18274,-32.73589 -156.41175,-53.28104 -156.41175,-57.45552 0,-15.62751 3.56312,-35.33952 -58.85975,-33.72272 -63.478142,1.64414 -76.634729,17.85531 -18.22806,2.17 49.373,-13.25937 140.95714,125.43612 200.28886,125.1347 36.98592,-0.18802 30.50561,-7.40255 58.13132,-2.69941 z m -59.52261,1.05856 c -69.67847,16.80813 -89.00413,79.93617 -35.89352,117.24753 33.24075,23.3523 80.70237,28.22271 126.04249,12.93418 34.57078,-11.65714 51.27072,-28.63214 54.08703,-54.97783 2.96197,-27.70882 -2.10503,-41.60513 -20.27686,-55.60975 -29.30731,-22.58654 -78.99486,-30.44061 -123.95914,-19.59413 z m 78.42744,8.13311 c 51.65105,16.18153 70.88993,52.22266 46.25673,86.65502 -11.58264,16.19022 -43.92553,32.59146 -71.06307,36.03637 -57.65364,7.31873 -119.72997,-36.63642 -106.74531,-75.58446 5.20786,-15.6212 11.54741,-23.10285 29.21411,-34.4774 28.38672,-18.27647 68.50791,-23.22786 102.33754,-12.62953 z"
       id="path2996"
       inkscape:connector-curvature="0"
       sodipodi:nodetypes="cssscssssssssscsssccsssssssssssssssssssssssssssssssssss" />
  </g>
</svg>
